HIERARCHY
ROOT Character1_Hips
{
  OFFSET 30.2907 112.535 71.5346
  CHANNELS 6 Xposition Yposition Zposition Zrotation Xrotation Yrotation
  JOINT Character1_Spine
  {
    OFFSET 0 8.754 -1.339
    CHANNELS 3 Zrotation Xrotation Yrotation
    JOINT Character1_Spine1
    {
      OFFSET 0 10.855 -0.645
      CHANNELS 3 Zrotation Xrotation Yrotation
      JOINT Character1_LeftShoulder
      {
        OFFSET 1.467 27.745 1.178
        CHANNELS 3 Zrotation Xrotation Yrotation
        JOINT Character1_LeftArm
        {
          OFFSET 18.486 -1.858 0.275
          CHANNELS 3 Zrotation Xrotation Yrotation
          JOINT Character1_LeftForeArm
          {
            OFFSET 31.798 2.36 2.921
            CHANNELS 3 Zrotation Xrotation Yrotation
            JOINT Character1_LeftHand
            {
              OFFSET 29.001 1.642 2.112
              CHANNELS 3 Zrotation Xrotation Yrotation
              End Site
              {
                OFFSET 7.3734 -1.0302 1.64982
              }
            }
            JOINT ForeArmBoxL
            {
              OFFSET 14.9879 1.12959 0.0233554
              CHANNELS 3 Zrotation Xrotation Yrotation
              End Site
              {
                OFFSET 0 0 0
              }
            }
          }
          JOINT ArmBoxL
          {
            OFFSET 15.8286 1.72374 1.18509
            CHANNELS 3 Zrotation Xrotation Yrotation
            End Site
            {
              OFFSET 0 0 0
            }
          }
        }
        JOINT ShoulderBoxL
        {
          OFFSET 8.34438 1.0846 -0.108247
          CHANNELS 3 Zrotation Xrotation Yrotation
          End Site
          {
            OFFSET 0 0 0
          }
        }
      }
      JOINT Character1_RightShoulder
      {
        OFFSET -1.467 27.745 1.178
        CHANNELS 3 Zrotation Xrotation Yrotation
        JOINT Character1_RightArm
        {
          OFFSET -18.486 -1.858 0.275
          CHANNELS 3 Zrotation Xrotation Yrotation
          JOINT Character1_RightForeArm
          {
            OFFSET -31.798 2.35964 2.92082
            CHANNELS 3 Zrotation Xrotation Yrotation
            JOINT Character1_RightHand
            {
              OFFSET -29.0007 1.64167 2.112
              CHANNELS 3 Zrotation Xrotation Yrotation
              End Site
              {
                OFFSET -7.37366 -1.0295 1.65001
              }
            }
            JOINT ForeArmBoxR
            {
              OFFSET -14.9879 1.12995 0.0235372
              CHANNELS 3 Zrotation Xrotation Yrotation
              End Site
              {
                OFFSET 0 0 0
              }
            }
          }
          JOINT ArmBoxR
          {
            OFFSET -15.8286 1.72374 1.18509
            CHANNELS 3 Zrotation Xrotation Yrotation
            End Site
            {
              OFFSET 0 0 0
            }
          }
        }
        JOINT ShoulderBoxR
        {
          OFFSET -8.34438 1.0846 -0.108247
          CHANNELS 3 Zrotation Xrotation Yrotation
          End Site
          {
            OFFSET 0 0 0
          }
        }
      }
      JOINT Character1_Neck
      {
        OFFSET 0 30.836 0.626
        CHANNELS 3 Zrotation Xrotation Yrotation
        JOINT Character1_Head
        {
          OFFSET 0 8.074 3.498
          CHANNELS 3 Zrotation Xrotation Yrotation
          End Site
          {
            OFFSET 0 8.75051 -0.3664
          }
        }
        JOINT NeckBox
        {
          OFFSET 0 4.52749 1.86245
          CHANNELS 3 Zrotation Xrotation Yrotation
          End Site
          {
            OFFSET 0 0 0
          }
        }
      }
      JOINT TorsoBox
      {
        OFFSET 0 12.7155 1.00402
        CHANNELS 3 Zrotation Xrotation Yrotation
        End Site
        {
          OFFSET 0 0 0
        }
      }
    }
    JOINT SpineBox
    {
      OFFSET 0 5.28258 0.326123
      CHANNELS 3 Zrotation Xrotation Yrotation
      End Site
      {
        OFFSET 0 0 0
      }
    }
  }
  JOINT Character1_RightUpLeg
  {
    OFFSET -9.035 -4.63425 1.845
    CHANNELS 3 Zrotation Xrotation Yrotation
    JOINT Character1_RightLeg
    {
      OFFSET -0.919521 -40.345 1.155
      CHANNELS 3 Zrotation Xrotation Yrotation
      JOINT Character1_RightFoot
      {
        OFFSET 1.95452 -45.2655 -4.18888
        CHANNELS 3 Zrotation Xrotation Yrotation
        JOINT Character1_RightToeBase
        {
          OFFSET 1.87056 -6.69517 14.7145
          CHANNELS 3 Zrotation Xrotation Yrotation
          End Site
          {
            OFFSET 0 0 0
          }
        }
        JOINT TalusBoxR
        {
          OFFSET -0.257548 -3.72327 1.77314
          CHANNELS 3 Zrotation Xrotation Yrotation
          End Site
          {
            OFFSET 0 0 0
          }
        }
        JOINT FootPinkyBoxR
        {
          OFFSET -4.44001 -5.06132 12.2866
          CHANNELS 3 Zrotation Xrotation Yrotation
          End Site
          {
            OFFSET 0 0 0
          }
        }
        JOINT FootThumbBoxR
        {
          OFFSET 0.350101 -5.07916 13.5666
          CHANNELS 3 Zrotation Xrotation Yrotation
          End Site
          {
            OFFSET 0 0 0
          }
        }
      }
      JOINT TibiaBoxR
      {
        OFFSET 0.679521 -22.8458 -3.405
        CHANNELS 3 Zrotation Xrotation Yrotation
        End Site
        {
          OFFSET 0 0 0
        }
      }
    }
    JOINT FemurBoxR
    {
      OFFSET -0.557975 -20.9557 -1.11465
      CHANNELS 3 Zrotation Xrotation Yrotation
      End Site
      {
        OFFSET 0 0 0
      }
    }
  }
  JOINT Character1_LeftUpLeg
  {
    OFFSET 9.035 -4.63425 1.845
    CHANNELS 3 Zrotation Xrotation Yrotation
    JOINT Character1_LeftLeg
    {
      OFFSET 0.919521 -40.345 1.155
      CHANNELS 3 Zrotation Xrotation Yrotation
      JOINT Character1_LeftFoot
      {
        OFFSET -1.95452 -45.2655 -4.18888
        CHANNELS 3 Zrotation Xrotation Yrotation
        JOINT Character1_LeftToeBase
        {
          OFFSET -1.87056 -6.69517 14.7145
          CHANNELS 3 Zrotation Xrotation Yrotation
          End Site
          {
            OFFSET 0 0 0
          }
        }
        JOINT FootThumbBoxL
        {
          OFFSET -0.350101 -5.07916 13.5666
          CHANNELS 3 Zrotation Xrotation Yrotation
          End Site
          {
            OFFSET 0 0 0
          }
        }
        JOINT FootPinkyBoxL
        {
          OFFSET 4.44001 -5.06132 12.2866
          CHANNELS 3 Zrotation Xrotation Yrotation
          End Site
          {
            OFFSET 0 0 0
          }
        }
        JOINT TalusBoxL
        {
          OFFSET 0.257548 -3.72327 1.77314
          CHANNELS 3 Zrotation Xrotation Yrotation
          End Site
          {
            OFFSET 0 0 0
          }
        }
      }
      JOINT TibiaBoxL
      {
        OFFSET -0.679521 -22.8458 -3.405
        CHANNELS 3 Zrotation Xrotation Yrotation
        End Site
        {
          OFFSET 0 0 0
        }
      }
    }
    JOINT FemurBoxL
    {
      OFFSET 0.557975 -20.9557 -1.11465
      CHANNELS 3 Zrotation Xrotation Yrotation
      End Site
      {
        OFFSET 0 0 0
      }
    }
  }
  JOINT PelvisBox
  {
    OFFSET 0 0.0930822 -0.0838296
    CHANNELS 3 Zrotation Xrotation Yrotation
    End Site
    {
      OFFSET 0 0 0
    }
  }
}
MOTION
Frames:	8
Frame Time:	0.00833333
30.2084 112.871 68.8959 0.07375 11.1244 32.8049 7.95139e-16 0 -3.18055e-15 -9.02857 -4.86247 -8.71446 8.62283e-07 -2.75072e-08 -4.07794e-07 -70.86 20.6332 33.2237 -7.97267 0.157911 -79.7939 -2.1726 2.46424 11.5992 -13.2576 -68.9783 -17.331 -6.92027 -72.5829 -11.2678 0.27423 -0.0473218 3.14463 8.62283e-07 -2.75072e-08 -4.07794e-07 88.3886 -29.9528 -44.7889 -9.22263 6.43156 86.1688 -7.04663 5.64213 15.2217 -166.742 68.9783 162.669 -173.08 72.5829 168.732 179.726 0.0473218 -176.855 -1.98785e-16 7.95139e-16 -6.36111e-15 6.95746e-16 0 -6.36111e-15 4.25309 18.0377 -5.10818 7.59699e-16 0.528321 -5.6603e-15 -12.6155 -0.265772 -6.75411 -3.86203 -16.2026 -22.493 -2.53234 9.20276 -0.0185979 -1.90644 -10.4935 -2.07815 1.27899 9.98258 0.132991 -178.531 -1.41374 -167.997 -179.276 -0.600381 -160.082 179.447 -1.12556 -169.995 -178 -5 180 179.002 0.985149 179.879 -8.11868 -2.28622 28.0088 -0.156682 -1.98908 0.216257 1.48925 -3.62481 25.9909 21.6038 33.632 -4.40046 0.553385 1.12556 10.0051 -0.724387 0.600381 19.9179 -1.46875 1.41374 12.0028 -2 5 -3.1661e-15 0.99792 -0.985149 -0.120973 0 0 -4.88727e-15 
30.2234 112.814 69.0304 0.224445 11.1301 32.2048 -7.95139e-16 0 -0 -9.05726 -4.93365 -9.00054 8.62283e-07 -2.75072e-08 -4.07794e-07 -70.9198 20.6341 32.9869 -8.26638 0.122018 -80.0896 -2.17617 2.46656 11.6187 -13.2576 -68.9783 -17.331 -6.92027 -72.5829 -11.2678 0.27423 -0.0473218 3.14463 8.62283e-07 -2.75072e-08 -4.07794e-07 88.0491 -29.9409 -45.2685 -9.36664 6.46762 86.2857 -7.20765 5.67602 15.5737 -166.742 68.9783 162.669 -173.08 72.5829 168.732 179.726 0.0473218 -176.855 -1.19271e-15 1.19271e-15 -3.18055e-15 -4.96962e-16 3.97569e-16 3.18055e-15 4.11473 17.9522 -4.97578 -1.91955e-15 0.528321 -2.83015e-15 -12.5832 -0.404815 -6.97906 -3.77474 -16.1013 -22.4172 -2.54945 9.05176 -0.000889816 -1.76898 -10.5602 -1.66901 1.33287 10.404 0.135892 -178.531 -1.41374 -167.997 -179.276 -0.600381 -160.082 179.447 -1.12556 -169.995 -178 -5 -180 179.002 0.985149 179.879 -8.16452 -2.12538 28.2944 -0.165067 -2.0008 0.211256 1.59326 -3.71042 26.2858 21.5203 33.5307 -4.36094 0.553385 1.12556 10.0051 -0.724387 0.600381 19.9179 -1.46875 1.41374 12.0028 -2 5 3.1661e-15 0.99792 -0.985149 -0.120973 1.22182e-15 1.75037e-15 -4.88727e-15 
30.2405 112.765 69.1717 0.395826 11.128 31.6152 0 0 -6.36111e-15 -9.08646 -4.98777 -9.27667 8.62283e-07 -2.75072e-08 -4.07794e-07 -70.9868 20.6155 32.722 -8.5377 0.0926499 -80.3677 -2.17045 2.47262 11.5922 -13.2576 -68.9783 -17.331 -6.92027 -72.5829 -11.2678 0.27423 -0.0473218 3.14463 8.62283e-07 -2.75072e-08 -4.07794e-07 87.7195 -29.895 -45.6898 -9.48337 6.50216 86.3428 -7.33622 5.70224 15.8544 -166.742 68.9783 162.669 -173.08 72.5829 168.732 179.726 0.0473218 -176.855 -1.2921e-15 -7.95139e-16 -0 1.98785e-16 7.95139e-16 -3.18055e-15 3.97286 17.8609 -4.84304 -6.55314e-16 0.528321 -5.6603e-15 -12.5635 -0.521962 -7.19518 -3.72058 -16.0002 -22.4033 -2.5598 8.93715 0.023594 -1.59568 -10.6175 -1.16439 1.40552 10.9723 0.138625 -178.531 -1.41374 -167.997 -179.276 -0.600381 -160.082 179.447 -1.12556 -169.995 -178 -5 -180 179.002 0.985149 179.879 -8.2256 -1.93215 28.5732 -0.185912 -2.02842 0.203551 1.70115 -3.7737 26.5899 21.3961 33.3793 -4.30236 0.553385 1.12556 10.0051 -0.724387 0.600381 19.9179 -1.46875 1.41374 12.0028 -2 5 -0 0.99792 -0.985149 -0.120973 2.9861e-31 1.75037e-15 -9.77454e-15 
30.2628 112.73 69.3235 0.577853 11.1125 31.046 7.95139e-16 1.59028e-15 -0 -9.10551 -5.02131 -9.54991 8.62283e-07 -2.75072e-08 -4.07794e-07 -71.0661 20.5625 32.3854 -8.76964 0.053276 -80.5275 -2.14924 2.48379 11.4889 -13.2576 -68.9783 -17.331 -6.92027 -72.5829 -11.2678 0.27423 -0.0473218 3.14463 8.62283e-07 -2.75072e-08 -4.07794e-07 87.4021 -29.8146 -46.0662 -9.5675 6.53216 86.3494 -7.43603 5.72198 16.0722 -166.742 68.9783 162.669 -173.08 72.5829 168.732 179.726 0.0473218 -176.855 -0 0 3.18055e-15 6.95746e-16 -7.95139e-16 3.18055e-15 3.82934 17.7602 -4.70718 -1.17579e-15 0.528321 2.83015e-15 -12.5382 -0.628354 -7.4081 -3.69557 -15.8923 -22.4602 -2.56444 8.85915 0.054364 -1.39062 -10.6713 -0.575026 1.48848 11.6202 0.14118 -178.531 -1.41374 -167.997 -179.276 -0.600381 -160.082 179.447 -1.12556 -169.995 -178 -5 -180 179.002 0.985149 179.879 -8.29263 -1.70233 28.8354 -0.217922 -2.0723 0.193673 1.80949 -3.82763 26.8956 21.2574 33.2096 -4.23723 0.553385 1.12556 10.0051 -0.724387 0.600381 19.9179 -1.46875 1.41374 12.0028 -2 5 3.1661e-15 0.99792 -0.985149 -0.120973 -0 -1.75037e-15 -0 
30.2814 112.702 69.4761 0.772246 11.0887 30.4789 -7.95139e-16 -1.59028e-15 1.27222e-14 -9.12158 -5.05536 -9.79856 8.62283e-07 -2.75072e-08 -4.07794e-07 -71.1524 20.4979 32.0049 -8.96105 0.014976 -80.628 -2.11043 2.50137 11.2992 -13.2576 -68.9783 -17.331 -6.92027 -72.5829 -11.2678 0.27423 -0.0473218 3.14463 8.62283e-07 -2.75072e-08 -4.07794e-07 87.0985 -29.7184 -46.4329 -9.63035 6.54891 86.3907 -7.49735 5.73413 16.206 -166.742 68.9783 162.669 -173.08 72.5829 168.732 179.726 0.0473218 -176.855 2.20695e-32 3.97569e-16 -3.18055e-15 7.95139e-16 0 3.18055e-15 3.68986 17.6669 -4.575 1.1497e-15 0.528321 -0 -12.5226 -0.709439 -7.60193 -3.71364 -15.8484 -22.4849 -2.56452 8.94173 0.0904907 -1.18827 -10.7631 -0.000743416 1.56738 12.2366 0.143511 -178.531 -1.41374 -167.997 -179.276 -0.600381 -160.082 179.447 -1.12556 -169.995 -178 -5 -180 179.002 0.985149 179.879 -8.36636 -1.45437 29.0568 -0.255987 -2.12467 0.182491 1.92575 -3.87999 27.2264 21.1389 33.064 -4.182 0.553385 1.12556 10.0051 -0.724387 0.600381 19.9179 -1.46875 1.41374 12.0028 -2 5 -3.1661e-15 0.99792 -0.985149 -0.120973 -2.44364e-15 -3.50074e-15 9.77454e-15 
30.2982 112.68 69.6323 0.955888 11.0498 29.9242 0 0 -0 -9.11264 -5.08659 -10.0352 8.62283e-07 -2.75072e-08 -4.07794e-07 -71.2582 20.389 31.6382 -9.1045 0.00595838 -80.791 -2.05805 2.52475 11.0431 -13.2576 -68.9783 -17.331 -6.92027 -72.5829 -11.2678 0.27423 -0.0473218 3.14463 8.62283e-07 -2.75072e-08 -4.07794e-07 86.8047 -29.5788 -46.8013 -9.66746 6.54836 86.4826 -7.51846 5.7386 16.252 -166.742 68.9783 162.669 -173.08 72.5829 168.732 179.726 0.0473218 -176.855 1.19271e-15 0 -0 7.95139e-16 0 -3.18055e-15 3.55395 17.5817 -4.44269 7.33603e-16 0.528321 -2.83015e-15 -12.4862 -0.779935 -7.78671 -3.69709 -15.735 -22.4498 -2.55819 8.91423 0.120106 -0.998315 -10.7801 0.542735 1.63151 12.7391 0.145575 -178.531 -1.41374 -167.997 -179.276 -0.600381 -160.082 179.447 -1.12556 -169.995 -178 -5 -180 179.002 0.985149 179.879 -8.42445 -1.19802 29.2243 -0.292213 -2.17653 0.1714 2.05067 -3.93943 27.5846 21.0494 32.9537 -4.14038 0.553385 1.12556 10.0051 -0.724387 0.600381 19.9179 -1.46875 1.41374 12.0028 -2 5 3.1661e-15 0.99792 -0.985149 -0.120973 1.22182e-15 -1.75037e-15 -0 
30.3094 112.664 69.7861 1.13116 10.9991 29.372 -1.59028e-15 1.59028e-15 6.36111e-15 -9.08599 -5.11184 -10.25 8.62283e-07 -2.75072e-08 -4.07794e-07 -71.3784 20.2634 31.1735 -9.24441 -0.0426354 -80.7668 -2.002 2.54752 10.7689 -13.2576 -68.9783 -17.331 -6.92027 -72.5829 -11.2678 0.27423 -0.0473218 3.14463 8.62283e-07 -2.75072e-08 -4.07794e-07 86.5346 -29.4603 -47.0682 -9.66683 6.55682 86.4286 -7.52117 5.73972 16.2575 -166.742 68.9783 162.669 -173.08 72.5829 168.732 179.726 0.0473218 -176.855 -7.95139e-16 -3.97569e-16 3.18055e-15 -9.93923e-17 -7.95139e-16 6.36111e-15 3.67546 17.5089 -4.3514 -9.1048e-16 0.528321 2.83015e-15 -12.4364 -0.830303 -7.95448 -3.66225 -15.6102 -22.3062 -2.54946 8.88165 0.144599 -0.836467 -10.7684 1.00901 1.67557 13.0844 0.147343 -178.531 -1.41374 -167.997 -179.276 -0.600381 -160.082 179.447 -1.12556 -169.995 -178 -5 -180 179.002 0.985149 179.879 -8.46933 -0.946555 29.3261 -0.319777 -2.21558 0.161663 2.18859 -4.01758 27.9832 21.0092 32.904 -4.12181 0.553385 1.12556 10.0051 -0.724387 0.600381 19.9179 -1.46875 1.41374 12.0028 -2 5 -3.1661e-15 0.99792 -0.985149 -0.120973 -2.44364e-15 1.75037e-15 4.88727e-15 
30.3162 112.648 69.9391 1.28697 10.9338 28.8193 7.95139e-16 3.18055e-15 3.18055e-15 -9.02954 -5.13215 -10.4342 8.62283e-07 -2.75072e-08 -4.07794e-07 -71.5224 20.1076 30.7402 -9.40042 -0.0786782 -80.821 -1.94995 2.56922 10.5151 -13.2576 -68.9783 -17.331 -6.92027 -72.5829 -11.2678 0.27423 -0.0473218 3.14463 8.62283e-07 -2.75072e-08 -4.07794e-07 86.2725 -29.3561 -47.3497 -9.67293 6.55132 86.4801 -7.51754 5.73939 16.2487 -166.742 68.9783 162.669 -173.08 72.5829 168.732 179.726 0.0473218 -176.855 3.97569e-16 -3.97569e-16 -0 5.96354e-16 -1.19271e-15 6.36111e-15 3.55011 17.427 -4.21875 2.02973e-16 0.528321 -2.83015e-15 -12.3563 -0.866553 -8.09862 -3.61015 -15.5099 -22.0684 -2.54033 8.91039 0.167224 -0.700752 -10.7684 1.40358 1.69936 13.2723 0.148811 -178.531 -1.41374 -167.997 -179.276 -0.600381 -160.082 179.447 -1.12556 -169.995 -178 -5 180 179.002 0.985149 179.879 -8.49117 -0.704755 29.3591 -0.334403 -2.23621 0.153947 2.34416 -4.11887 28.4333 21.013 32.9087 -4.12356 0.553385 1.12556 10.0051 -0.724387 0.600381 19.9179 -1.46875 1.41374 12.0028 -2 5 -0 0.99792 -0.985149 -0.120973 6.10909e-16 3.50074e-15 4.88727e-15 
